<?xml version="1.0" encoding="utf-8"?>
<!-- Generator: Adobe Illustrator 24.0.2, SVG Export Plug-In . SVG Version: 6.00 Build 0)  -->
<svg version="1.1" id="Слой_1" xmlns="http://www.w3.org/2000/svg" xmlns:xlink="http://www.w3.org/1999/xlink" x="0px" y="0px"
	 viewBox="0 0 80.2 89.1" style="enable-background:new 0 0 80.2 89.1;" xml:space="preserve" width="80" height="88">
<style type="text/css">
	.st0{fill:#45A919;}
</style>
<g id="outline">
	<path class="st0" d="M72.7,0H13.4C9.3,0,5.9,3.3,5.9,7.4v66.8H1.5c-0.8,0-1.5,0.7-1.5,1.5v5.9c0,4.1,3.3,7.4,7.4,7.4h53.4
		c4.1,0,7.4-3.3,7.4-7.4V14.8h10.4c0.8,0,1.5-0.7,1.5-1.5V7.4C80.2,3.3,76.8,0,72.7,0z M7.4,86.1c-2.5,0-4.5-2-4.5-4.5v-4.5h50.5
		v4.5c0,1.6,0.5,3.2,1.5,4.5H7.4z M65.3,81.6c0,2.5-2,4.5-4.5,4.5s-4.5-2-4.5-4.5v-5.9c0-0.8-0.7-1.5-1.5-1.5h-46V7.4
		c0-2.5,2-4.5,4.5-4.5h53.4c-1,1.3-1.5,2.8-1.5,4.5V81.6z M77.2,11.9h-8.9V7.4c0-2.5,2-4.5,4.5-4.5s4.5,2,4.5,4.5V11.9z"/>
	<path class="st0" d="M36.6,32.7c4.1,0,7.4-3.3,7.4-7.4s-3.3-7.4-7.4-7.4s-7.4,3.3-7.4,7.4C29.2,29.3,32.5,32.7,36.6,32.7z
		 M36.6,20.8c2.5,0,4.5,2,4.5,4.5s-2,4.5-4.5,4.5c-2.5,0-4.5-2-4.5-4.5C32.2,22.8,34.2,20.8,36.6,20.8z"/>
	<path class="st0" d="M51.3,43.2c-2.4-2.4-3.8-5.7-3.8-9.1c0-0.1,0-0.2,0-0.3c0.1-0.1,0.3-0.3,0.4-0.4c0.8-1.1,1-2.6,0.4-3.8
		c-0.2-0.4,0-0.8,0.3-1l0,0c1.8-1,2.5-3.3,1.4-5.2c-0.3-0.6-0.8-1.1-1.4-1.4l0,0c-0.4-0.2-0.5-0.7-0.3-1c0.9-1.9,0-4.1-1.9-5
		c-0.6-0.3-1.3-0.4-2-0.3c-0.4,0-0.8-0.2-0.9-0.6l0,0c-0.4-2-2.4-3.4-4.5-3c-0.7,0.1-1.3,0.5-1.8,0.9l0,0l0,0
		c-0.3,0.3-0.8,0.3-1.1,0c-1.5-1.4-3.9-1.3-5.3,0.2c-0.5,0.5-0.8,1.1-0.9,1.8l0,0c-0.1,0.4-0.5,0.7-0.9,0.6c-2.1-0.2-4,1.2-4.2,3.3
		c-0.1,0.7,0,1.4,0.3,2c0.2,0.4,0,0.8-0.3,1l0,0c-1.8,1-2.5,3.3-1.4,5.2c0.3,0.6,0.8,1.1,1.4,1.4l0,0c0.4,0.2,0.5,0.7,0.3,1
		c-0.6,1.2-0.4,2.7,0.4,3.8c0.3,0.5,0.8,0.9,1.3,1.1c-0.1,3.3-1.4,6.4-3.8,8.7l-3.2,3.2c-0.6,0.6-0.6,1.5,0,2.1
		c0.3,0.3,0.8,0.5,1.3,0.4l7.5-1.2l1.2,6c0.2,0.8,0.9,1.3,1.7,1.2c0.4-0.1,0.8-0.3,1-0.7l4-7.1c0.2-0.4,0.4-0.8,0.6-1.2
		c0.2,0.4,0.4,0.8,0.6,1.2l4,7.1c0.4,0.7,1.3,1,2,0.6c0.4-0.2,0.6-0.6,0.7-1l1.2-6l7.5,1.2c0.8,0.1,1.6-0.4,1.7-1.2
		c0.1-0.5-0.1-1-0.4-1.3L51.3,43.2z M26.2,25.9c-0.4-0.2-0.5-0.7-0.3-1.1c0.1-0.1,0.2-0.2,0.3-0.3l0,0c1.7-1,2.4-3.1,1.6-4.9
		c-0.2-0.4,0-0.9,0.4-1.1c0.1-0.1,0.3-0.1,0.4-0.1c1.9,0.2,3.7-1.1,4.1-3l0,0c0.1-0.4,0.5-0.7,1-0.6c0.1,0,0.3,0.1,0.4,0.2
		c1.5,1.3,3.7,1.3,5.1,0l0,0c0.3-0.3,0.8-0.3,1.1,0c0.1,0.1,0.2,0.2,0.2,0.4l0,0c0.4,1.9,2.2,3.2,4.1,3c0.4-0.1,0.8,0.3,0.9,0.7
		c0,0.1,0,0.3-0.1,0.4c-0.8,1.8-0.1,3.9,1.6,4.9l0,0c0.4,0.2,0.5,0.7,0.3,1.1c-0.1,0.1-0.2,0.2-0.3,0.3l0,0c-1.7,1-2.4,3.1-1.6,4.9
		c0.2,0.4,0,0.9-0.4,1.1C45,32,44.8,32,44.7,32c-1.9-0.2-3.7,1.1-4.1,3l0,0c-0.1,0.4-0.5,0.7-1,0.6c-0.1,0-0.3-0.1-0.4-0.2
		c-1.5-1.3-3.7-1.3-5.1,0c-0.3,0.3-0.8,0.3-1.1,0c-0.1-0.1-0.2-0.2-0.2-0.4l0,0c-0.4-1.9-2.2-3.2-4.1-3c-0.4,0.1-0.8-0.3-0.9-0.7
		c0-0.1,0-0.3,0.1-0.4C28.5,29,27.9,26.9,26.2,25.9L26.2,25.9z M33.9,45.6l-2.1,3.6l-0.7-3.5c-0.2-0.8-0.9-1.3-1.7-1.2l-4.3,0.7
		c2.7-2.7,4.3-6.3,4.5-10c0.1,0.1,0.1,0.2,0.2,0.3l0,0c0.4,2,2.4,3.4,4.5,3c0.5-0.1,1-0.3,1.4-0.6v1.3C35.6,41.5,35,43.7,33.9,45.6z
		 M44.8,44.6c-0.8-0.1-1.5,0.4-1.7,1.2l-0.7,3.5l-2.1-3.6c-1.1-1.9-1.7-4.1-1.7-6.4v-0.8c0.4,0.1,0.7,0.2,1.1,0.2
		c0.4,0,0.8-0.1,1.2-0.2c1.3-0.4,2.3-1.5,2.5-2.8l0,0c0.1-0.4,0.5-0.7,0.9-0.6c0.1,0,0.1,0,0.2,0c0.2,3.9,1.8,7.6,4.6,10.3
		L44.8,44.6z"/>
	<circle class="st0" cx="36.6" cy="62" r="1.9"/>
	<circle class="st0" cx="30.2" cy="62" r="1.9"/>
	<circle class="st0" cx="42.9" cy="62" r="1.9"/>
</g>
</svg>
