<svg height="86" viewBox="0 0 60 60" width="86" xmlns="http://www.w3.org/2000/svg"><g id="Page-1" fill="none" fill-rule="evenodd"><g id="025---Pest-Protection" fill="rgb(0,0,0)" fill-rule="nonzero" transform="translate(-1)"><path fill="#45a919" id="Shape" d="m32.993.758c-1.1366295-1.01025427-2.8493705-1.01025427-3.986 0l-10.007 8.895v-1.653c0-1.1045695-.8954305-2-2-2h-4c-1.1045695 0-2 .8954305-2 2v8.764l-8.993 7.994c-.91045245.8054985-1.24481522 2.0808048-.84668884 3.2293896.39812637 1.1485847 1.45003391 1.9433773 2.66368884 2.0126104h.18c.73372371.0008993 1.44197082-.2690109 1.989-.758l2.007-1.784v29.542c0 1.6568542 1.34314575 3 3 3h40c1.6568542 0 3-1.3431458 3-3v-29.541l2.007 1.784c1.254896 1.0531269 3.1136908.9434246 4.236-.25 1.1003203-1.2385357.9883966-3.1345232-.25-4.235zm-19.993 7.242h4v3.431l-4 3.555zm39 49c0 .5522847-.4477153 1-1 1h-40c-.5522847 0-1-.4477153-1-1v-31.319l21-18.667 21 18.667zm6.748-29.336c-.1762441.198587-.4242299.3189301-.6892891.3344997-.2650592.0155697-.5254289-.0749125-.7237109-.2514997l-25.67-22.819c-.3790844-.33754219-.9509156-.33754219-1.33 0l-25.671 22.82c-.19869715.1754444-.45829765.2659276-.723.252-.4029115-.025704-.75084353-.2911671-.8820515-.6729823s-.01995058-.8050753.2820515-1.0730177l9.35-8.312c.01-.009.02-.016.029-.025l17.616-15.665c.3787722-.33635657.9492278-.33635657 1.328 0l27 24c.1984293.1760749.3187635.4237805.3345175.6885981s-.0743633.525043-.2505175.7234019z"/><path fill="#45a919" id="Shape" d="m30.169 16.443c-.037.057-3.906 5.679-13.459 7.576-.3920355.0780172-.6999504.3819997-.783.773l-1.537 7.253c-1.2968368 6.1904691.7580996 12.6067327 5.41 16.892.014431.0225338.0301227.044235.047.065.0250185.017846.0510633.0342075.078.049.8471506.7738851 1.7663302 1.4650278 2.745 2.064l7.809 4.74c.3189088.1936343.7190912.1936343 1.038 0l7.809-4.74c6.5269046-3.9558296 9.8467337-11.6000148 8.282-19.07l-1.537-7.253c-.0830496-.3910003-.3909645-.6949828-.783-.773-9.5-1.886-13.423-7.522-13.459-7.576-.1962995-.2606871-.50367-.4140032-.83-.4140032s-.6337005.1533161-.83.4140032zm15.485 16.017c1.3893393 6.6386712-1.5626145 13.4312917-7.364 16.945l-7.29 4.425-7.29-4.425c-.6033342-.3701539-1.18159-.77971-1.731-1.226l21.033-22.636c.4.106.814.209 1.239.3zm-4.767-7.568-20.387 21.938c-3.6850927-3.8030003-5.2425722-9.1869263-4.157-14.37l1.4-6.615c7.495-1.645 11.623-5.414 13.257-7.245 2.7110922 2.8990342 6.112637 5.0637475 9.887 6.292z"/></g></g></svg>