<?xml version="1.0" encoding="utf-8"?>
<!-- Generator: Adobe Illustrator 24.0.2, SVG Export Plug-In . SVG Version: 6.00 Build 0)  -->
<svg version="1.1" id="Capa_1" xmlns="http://www.w3.org/2000/svg" xmlns:xlink="http://www.w3.org/1999/xlink" x="0px" y="0px"
	 viewBox="0 0 77.9 61" style="enable-background:new 0 0 77.9 61;" xml:space="preserve" width="91" height="72">
<style type="text/css">
	.st0{fill:#45A919;}
</style>
<path class="st0" d="M74.7,42c-2.8-4-7.1-6.6-12-7.1c1.5-1.5,2.3-3.4,2.5-5.5c1.3-1.1,1.9-2.6,1.7-4.3c-0.2-1.3-0.8-2.2-1.6-2.7
	c0.2-2.5-0.4-4.5-1.7-6c-2.2-2.5-5.7-3.1-8.3-3.1c-0.4,0-0.9,0-1.3,0c-0.3-1.3-0.9-2.4-1.7-3.3C50,7.1,46,6.5,43.1,6.5
	c-1.2,0-2.3,0.1-3.3,0.2c-0.3-0.8-0.8-1.6-1.4-2.3C35.7,1.4,31.2,0.7,28,0.7c-4.8,0-8.1,1.1-10.1,3.4c-1.7,1.9-2.5,4.6-2.2,8
	c-0.9,0.6-1.8,1.6-2,3.3c-0.3,2.2,0.5,4,2.1,5.3c0.2,2.9,1.5,5.6,3.6,7.5c0.1,0.1,0.1,0.1,0.2,0.2c-6.3,0.4-12.1,3.7-15.7,8.9
	C2,40.1,1,43.3,1,46.7v6.9C1,57.7,4.4,61,8.5,61h3.6c0.8,0,1.5-0.7,1.5-1.5V47.9c0-0.8-0.7-1.5-1.5-1.5s-1.5,0.7-1.5,1.5v10.1H8.5
	c-2.5,0-4.5-2-4.5-4.5v-6.9c0-2.8,0.8-5.5,2.3-7.8c2.6-3.9,6.7-6.5,11.2-7.3c0.2,0.9,0.6,2,1.3,3.1c1.3,2.2,4,4.8,9.3,4.8
	c5.3,0,8-2.6,9.3-4.8c0.7-1.1,1.1-2.3,1.3-3.1c5.4,1,10.6,4.8,12.6,10.1c0.6,1.6,0.9,3.3,0.9,5v6.9c0,2.5-2,4.5-4.5,4.5h-2.1V47.9
	c0-0.8-0.7-1.5-1.5-1.5c-0.8,0-1.5,0.7-1.5,1.5v10.1H25c-0.8,0-1.5,0.7-1.5,1.5c0,0.8,0.7,1.5,1.5,1.5l45.9,0c3.4,0,6.1-2.7,6.1-6.1
	v-5.4C77,46.8,76.2,44.2,74.7,42z M61.5,18.3c0.9,1.1,1.2,2.7,0.9,4.7c-0.1,0.8,0.4,1.5,1.1,1.7c0,0,0.5,0.1,0.6,0.8
	c0.1,0.9-0.2,1.4-0.9,1.9c-0.5,0.3-0.7,0.8-0.7,1.3c0,1.8-0.7,3.4-2,4.5c-0.4,0.3-0.8,0.6-1.2,0.8c-2.5-1.5-5.3-2.3-8.2-2.5
	c1.9-1.7,3-4.1,3.2-6.7c1.5-1.2,2.2-2.9,1.9-4.9c-0.2-1.2-0.8-2.3-1.8-3c0-0.2,0-0.4,0-0.6c0,0,0,0,0,0c0.3,0,0.6,0,1,0
	C57,16.2,59.9,16.5,61.5,18.3z M40.4,9.7c0.8-0.1,1.7-0.2,2.6-0.2c4.4,0,6.4,1.5,7.1,2.4c0.8,0.9,1.2,2.1,1.3,3.5
	c0,0.8-0.1,1.5-0.1,2.3c0,0.7,0.4,1.4,1.1,1.5c0.2,0.1,0.7,0.3,0.8,1.1c0.1,1.1-0.2,1.8-1.2,2.4c-0.5,0.3-0.7,0.8-0.7,1.3
	c0,0.5,0,1-0.2,1.6c-0.6,2.8-2.8,4.8-5.5,5.5c-1.6-0.9-3.2-1.6-5-2c-1.4-0.4-2.8-0.6-4.2-0.6c2.3-1.9,3.6-4.7,3.8-7.6
	c1.7-1.3,2.4-3.2,2.1-5.3c-0.2-1.5-1-2.3-2-3.3c0-0.5,0-0.8,0-1.1C40.5,10.6,40.5,10.1,40.4,9.7z M18.7,20c0-0.5-0.3-1-0.7-1.3
	c-1.1-0.7-1.6-1.6-1.4-2.8c0.1-1,0.8-1.3,1-1.4c0.8-0.2,1.2-0.8,1.1-1.6c-0.4-3,0.1-5.3,1.4-6.7c1.5-1.6,4.1-2.4,7.9-2.4
	c3.7,0,6.5,1,8.1,2.7c0.6,0.7,1,1.6,1.3,2.6c0.3,1.3,0.1,2.5,0,3.8c-0.1,0.7,0.4,1.4,1.1,1.6c0.6,0.2,1,0.8,1,1.4
	c0.1,1-0.1,1.7-0.7,2.3c-0.2,0.2-0.4,0.4-0.7,0.5c-0.5,0.3-0.7,0.8-0.7,1.3c0,2.4-0.9,4.5-2.7,6.1c-1.8,1.6-4.3,2.3-6.7,2.3
	c-2.6,0-5-0.8-6.7-2.3C19.6,24.5,18.7,22.4,18.7,20z M28.2,36.6c-3.1,0-5.4-1.1-6.7-3.3c-0.4-0.7-0.7-1.4-0.9-2c0,0,15.2,0,15.3,0
	c-0.2,0.6-0.4,1.3-0.9,2C33.6,35.5,31.3,36.6,28.2,36.6z M54,57.8c0.8-1.2,1.3-2.7,1.3-4.2v-6.9c0-4.7-2-9.1-5.3-12.4
	c5.7,0.1,11.4,3.4,13.8,8.7c0.7,1.6,1,3.3,1,5v6.2c0,2.1-1.7,3.9-3.9,3.9h-7.1C53.9,58,53.9,57.9,54,57.8z M74.1,54.9
	c0,1.7-1.4,3.2-3.2,3.2h-4.4c0.8-1.1,1.2-2.5,1.2-3.9V48c0-3.6-1.3-7.1-3.6-9.9c3.3,0.7,6.2,2.7,8.2,5.5c1.2,1.7,1.8,3.7,1.8,5.9
	V54.9z"/>
<path class="st0" d="M20.1,59c-0.2-0.6-0.8-1-1.5-0.9c-0.6,0-1.2,0.5-1.3,1.1c-0.4,1.3,1.1,2.4,2.2,1.6C20.2,60.4,20.4,59.6,20.1,59z"/>
</svg>
