<svg height="93" viewBox="0 0 60 60" width="92" xmlns="http://www.w3.org/2000/svg"><g id="Page-1" fill="none" fill-rule="evenodd"><g id="008---Pesticide" fill="rgb(0,0,0)" fill-rule="nonzero" transform="translate(-1)"><path fill="#45a919" id="Shape" d="m52 20h-4v-2c0-1.1045695-.8954305-2-2-2v-2c0-1.1045695-.8954305-2-2-2h-3v-2.08c3.4396095-.49906301 5.9933527-3.44438013 6-6.92v-1c0-1.1045695-.8954305-2-2-2h-10c-1.1045695 0-2 .8954305-2 2v1c.0066473 3.47561987 2.5603905 6.42093699 6 6.92v2.08h-3c-1.1045695 0-2 .8954305-2 2v2c-1.1045695 0-2 .8954305-2 2v2h-2v-3c0-1.1045695-.8954305-2-2-2v-.5c0-3.5898509-2.9101491-6.5-6.5-6.5s-6.5 2.9101491-6.5 6.5v37.5c0 3.3137085-2.6862915 5.9999999-6 5.9999999-3.31370846 0-5.99999995-2.6862914-6-5.9999999v-10c-.03083194-2.5854693.85844573-5.0977053 2.509-7.088.78674747.705031 1.98774366.6707545 2.733-.078l1.835-1.834h.923c1.1045695 0 2-.8954305 2-2v-10c0-1.1045695-.8954305-2-2-2v-13c-.0000566-.26519481-.1054506-.51950727-.293-.707l-5-5c-.39237889-.37897221-1.01608478-.37355237-1.40181858.01218143-.38573379.38573379-.39115363 1.00943968-.01218142 1.40181857l4.707 4.707v12.586c-1.1045695 0-2 .8954305-2 2v1.87c-.86013417-.1073596-1.62882212-.5894368-2.1-1.317-.24687128-.4942949-.84770515-.6948713-1.342-.448s-.69487128.8477051-.448 1.342c.83189586 1.3917432 2.27600788 2.3049863 3.89 2.46v2.685l-3 3c-.78076388.7809997-.78076388 2.0470003 0 2.828l.078.079c-2.01381257 2.3719536-3.10642781 5.3896021-3.078 8.501v10c-.00000004 2.8581247 1.52479133 5.4991409 3.99999997 6.9282033 2.47520863 1.4290624 5.52479143 1.4290624 8.00000003 0 2.4752087-1.4290624 4-4.0700786 4-6.9282033v-37.5c0-2.4852814 2.0147186-4.5 4.5-4.5s4.5 2.0147186 4.5 4.5v.5c-1.1045695 0-2 .8954305-2 2v3.95c-3.058791 1.5175814-4.9953479 4.6354379-5 8.05v26c.0033061 2.7600532 2.2399468 4.9966939 5 5h32c2.7600532-.0033061 4.9966939-2.2399468 5-5v-26c-.0055111-4.9682782-4.0317218-8.9944889-9-9zm-17-17v-1h10v1c0 2.76142375-2.2385763 5-5 5s-5-2.23857625-5-5zm-26.586 26.006c.37641214-.3741062.58743707-.8833028.586-1.414v-6.592h2v10h-.923c-.53069715-.0014371-1.03989382.2095879-1.414.586l-1.835 1.834-.628-.631c0-.005-.006-.011-.01-.016s-.013-.007-.018-.012l-.755-.755zm27.586-15.006h8v2h-8zm-2 4h12v2h-12zm-8-1h2v3c-.6732602.0020395-1.3441511.0798628-2 .232zm33 34h-38v-20h38zm-3 7h-32c-1.6568542 0-3-1.3431458-3-3v-2h38v2c0 1.6568542-1.3431458 3-3 3zm-35-29c.0044086-3.8641657 3.1358343-6.9955914 7-7h24c3.8641657.0044086 6.9955914 3.1358343 7 7z"/><path fill="#45a919" id="Shape" d="m34.343 46.657c.007.007.016.009.024.016 3.131554 3.0657449 8.1474654 3.0391137 11.2462896-.0597104 3.0988241-3.0988242 3.1254553-8.1147356.0597104-11.2462896-.007-.008-.009-.017-.016-.024s-.016-.009-.024-.016c-3.131554-3.0657449-8.1474654-3.0391137-11.2462896.0597104-3.0988241 3.0988242-3.1254553 8.1147356-.0597104 11.2462896.007.008.009.017.016.024zm5.657.343c-1.2450511-.0000591-2.4588346-.3899665-3.471-1.115l8.356-8.356c1.304941 1.8273992 1.4782256 4.2311586.4488863 6.2268337-1.0293394 1.9956752-3.0883922 3.2480284-5.3338863 3.2441663zm0-12c1.2450511.0000591 2.4588346.3899665 3.471 1.115l-8.356 8.356c-1.304941-1.8273992-1.4782256-4.2311586-.4488863-6.2268337 1.0293394-1.9956752 3.0883922-3.2480284 5.3338863-3.2441663z"/></g></g></svg>