<svg 
 xmlns="http://www.w3.org/2000/svg"
 xmlns:xlink="http://www.w3.org/1999/xlink"
 width="17px" height="11px">
<path fill-rule="evenodd"  fill="rgb(20, 20, 20)"
 d="M16.896,5.248 L11.583,0.083 C11.445,-0.051 11.221,-0.051 11.083,0.083 C10.944,0.218 10.944,0.435 11.083,0.570 L15.791,5.147 L0.354,5.147 C0.158,5.147 -0.000,5.300 -0.000,5.491 C-0.000,5.682 0.158,5.835 0.354,5.835 L15.791,5.835 L11.083,10.413 C10.944,10.547 10.944,10.764 11.083,10.899 C11.152,10.966 11.243,11.000 11.333,11.000 C11.424,11.000 11.514,10.966 11.584,10.899 L16.896,5.735 C17.034,5.600 17.034,5.382 16.896,5.248 Z"/>
</svg>