<svg 
 xmlns="http://www.w3.org/2000/svg"
 xmlns:xlink="http://www.w3.org/1999/xlink"
 width="8px" height="16px">
<defs>
<filter id="Filter_0">
    <feFlood flood-color="rgb(69, 169, 25)" flood-opacity="1" result="floodOut" />
    <feComposite operator="atop" in="floodOut" in2="SourceGraphic" result="compOut" />
    <feBlend mode="normal" in="compOut" in2="SourceGraphic" />
</filter>

</defs>
<g filter="url(#Filter_0)">
<path fill-rule="evenodd"  fill="rgb(0, 0, 0)"
 d="M0.255,8.522 L1.991,8.522 L1.991,15.742 C1.991,15.884 2.106,16.000 2.247,16.000 L5.190,16.000 C5.331,16.000 5.445,15.884 5.445,15.742 L5.445,8.555 L7.441,8.555 C7.571,8.555 7.680,8.457 7.695,8.327 L7.998,5.669 C8.006,5.596 7.983,5.523 7.935,5.467 C7.886,5.413 7.817,5.381 7.744,5.381 L5.446,5.381 L5.446,3.715 C5.446,3.213 5.713,2.958 6.241,2.958 C6.316,2.958 7.744,2.958 7.744,2.958 C7.885,2.958 8.000,2.843 8.000,2.700 L8.000,0.260 C8.000,0.118 7.885,0.002 7.744,0.002 L5.673,0.002 C5.658,0.001 5.626,-0.000 5.578,-0.000 C5.219,-0.000 3.969,0.071 2.983,0.988 C1.889,2.005 2.041,3.222 2.078,3.433 L2.078,5.381 L0.255,5.381 C0.114,5.381 -0.000,5.497 -0.000,5.639 L-0.000,8.263 C-0.000,8.406 0.114,8.522 0.255,8.522 Z"/>
</g>
</svg>