<svg 
 xmlns="http://www.w3.org/2000/svg"
 xmlns:xlink="http://www.w3.org/1999/xlink"
 width="23px" height="16px">
<defs>
<filter id="Filter_0">
    <feFlood flood-color="rgb(69, 169, 25)" flood-opacity="1" result="floodOut" />
    <feComposite operator="atop" in="floodOut" in2="SourceGraphic" result="compOut" />
    <feBlend mode="normal" in="compOut" in2="SourceGraphic" />
</filter>

</defs>
<g filter="url(#Filter_0)">
<path fill-rule="evenodd"  fill="rgb(0, 0, 0)"
 d="M22.452,9.653 L21.007,9.653 L21.007,11.203 C21.007,11.528 20.762,11.790 20.460,11.790 L18.509,11.790 C18.206,11.790 17.961,11.528 17.961,11.203 L17.961,9.653 L16.516,9.653 C16.214,9.653 15.969,9.390 15.969,9.066 L15.969,6.973 C15.969,6.649 16.214,6.386 16.516,6.386 L17.961,6.386 L17.961,4.836 C17.961,4.512 18.206,4.249 18.509,4.249 L20.460,4.249 C20.762,4.249 21.007,4.512 21.007,4.836 L21.007,6.386 L22.452,6.386 C22.755,6.386 23.000,6.649 23.000,6.973 L23.000,9.066 C23.000,9.390 22.755,9.653 22.452,9.653 ZM14.538,9.206 C14.374,10.980 13.750,12.531 12.733,13.693 C11.449,15.159 9.554,16.000 7.535,16.000 C5.493,16.000 3.528,15.144 2.143,13.653 C0.748,12.149 -0.014,10.121 0.000,7.942 C0.014,5.763 0.800,3.747 2.214,2.264 C3.607,0.804 5.450,0.000 7.403,0.000 C8.351,0.000 9.277,0.189 10.157,0.561 C10.171,0.567 10.184,0.574 10.198,0.581 L11.219,1.121 C11.242,1.133 11.264,1.148 11.286,1.164 L12.339,1.939 C12.474,2.038 12.561,2.196 12.575,2.370 C12.590,2.545 12.531,2.717 12.415,2.840 L10.602,4.766 C10.416,4.965 10.124,4.993 9.908,4.834 L9.286,4.378 C8.742,4.014 8.104,3.823 7.441,3.823 C6.462,3.823 5.500,4.249 4.802,4.992 C3.319,6.572 3.303,9.362 4.767,10.963 C5.470,11.733 6.476,12.175 7.526,12.175 C8.554,12.175 9.513,11.747 10.155,11.002 C10.450,10.660 10.683,10.293 10.831,9.945 L7.604,9.945 C7.302,9.945 7.057,9.683 7.057,9.358 L7.057,7.010 C7.057,6.686 7.302,6.423 7.604,6.423 L13.933,6.423 C14.202,6.423 14.432,6.633 14.474,6.919 L14.553,7.464 C14.558,7.496 14.560,7.530 14.560,7.563 L14.541,9.156 C14.541,9.172 14.540,9.189 14.538,9.206 Z"/>
</g>
</svg>