<svg 
 xmlns="http://www.w3.org/2000/svg"
 xmlns:xlink="http://www.w3.org/1999/xlink"
 width="17px" height="17px">
<defs>
<filter id="Filter_0">
    <feFlood flood-color="rgb(180, 180, 180)" flood-opacity="1" result="floodOut" />
    <feComposite operator="atop" in="floodOut" in2="SourceGraphic" result="compOut" />
    <feBlend mode="normal" in="compOut" in2="SourceGraphic" />
</filter>

</defs>
<g filter="url(#Filter_0)">
<path fill-rule="evenodd"  fill="rgb(96, 97, 101)"
 d="M11.688,17.000 L5.313,17.000 C2.379,17.000 0.000,14.621 0.000,11.687 L0.000,5.312 C0.000,2.379 2.379,-0.000 5.313,-0.000 L11.688,-0.000 C14.621,-0.000 17.000,2.379 17.000,5.312 L17.000,11.687 C17.000,14.621 14.621,17.000 11.688,17.000 ZM15.406,5.312 C15.406,3.262 13.738,1.594 11.688,1.594 L5.313,1.594 C3.262,1.594 1.594,3.262 1.594,5.312 L1.594,11.687 C1.594,13.738 3.262,15.406 5.313,15.406 L11.688,15.406 C13.738,15.406 15.406,13.738 15.406,11.687 L15.406,5.312 ZM13.069,4.498 C12.756,4.498 12.502,4.244 12.502,3.931 C12.502,3.618 12.756,3.365 13.069,3.365 C13.382,3.365 13.635,3.618 13.635,3.931 C13.635,4.244 13.382,4.498 13.069,4.498 ZM8.500,12.750 C6.153,12.750 4.250,10.847 4.250,8.500 C4.250,6.153 6.153,4.250 8.500,4.250 C10.847,4.250 12.750,6.153 12.750,8.500 C12.750,10.847 10.847,12.750 8.500,12.750 ZM8.500,5.844 C7.036,5.844 5.844,7.035 5.844,8.500 C5.844,9.964 7.036,11.156 8.500,11.156 C9.964,11.156 11.156,9.964 11.156,8.500 C11.156,7.035 9.964,5.844 8.500,5.844 Z"/>
</g>
</svg>