<svg 
 xmlns="http://www.w3.org/2000/svg"
 xmlns:xlink="http://www.w3.org/1999/xlink"
 width="22px" height="22px">
<path fill-rule="evenodd"  fill="rgb(69, 169, 25)"
 d="M20.263,14.485 C18.906,14.485 17.577,14.273 16.317,13.858 C15.702,13.646 15.004,13.809 14.600,14.221 L12.102,16.107 C9.237,14.578 7.402,12.745 5.894,9.900 L7.729,7.462 C8.191,7.000 8.356,6.323 8.159,5.690 C7.739,4.422 7.526,3.092 7.526,1.737 C7.526,0.779 6.747,-0.000 5.789,-0.000 L1.737,-0.000 C0.779,-0.000 -0.000,0.779 -0.000,1.737 C-0.000,12.909 9.091,22.000 20.263,22.000 C21.221,22.000 22.000,21.221 22.000,20.263 L22.000,16.222 C22.000,15.265 21.221,14.485 20.263,14.485 Z"/>
</svg>