<svg 
 xmlns="http://www.w3.org/2000/svg"
 xmlns:xlink="http://www.w3.org/1999/xlink"
 width="19px" height="15px">
<defs>
<filter id="Filter_0">
    <feFlood flood-color="rgb(69, 169, 25)" flood-opacity="1" result="floodOut" />
    <feComposite operator="atop" in="floodOut" in2="SourceGraphic" result="compOut" />
    <feBlend mode="normal" in="compOut" in2="SourceGraphic" />
</filter>

</defs>
<g filter="url(#Filter_0)">
<path fill-rule="evenodd"  fill="rgb(0, 0, 0)"
 d="M17.592,1.731 C17.309,1.859 17.018,1.967 16.721,2.054 C17.073,1.649 17.341,1.173 17.505,0.652 C17.541,0.535 17.503,0.407 17.409,0.331 C17.315,0.254 17.184,0.245 17.080,0.307 C16.449,0.688 15.769,0.962 15.055,1.122 C14.336,0.407 13.360,0.000 12.350,0.000 C10.220,0.000 8.486,1.764 8.486,3.933 C8.486,4.104 8.497,4.274 8.518,4.441 C5.874,4.205 3.416,2.882 1.728,0.774 C1.668,0.700 1.575,0.659 1.480,0.667 C1.385,0.674 1.300,0.729 1.252,0.813 C0.910,1.411 0.729,2.094 0.729,2.790 C0.729,3.738 1.061,4.637 1.648,5.340 C1.470,5.277 1.296,5.198 1.131,5.104 C1.042,5.054 0.934,5.055 0.846,5.107 C0.757,5.158 0.702,5.253 0.700,5.356 C0.699,5.374 0.699,5.391 0.699,5.409 C0.699,6.823 1.447,8.097 2.591,8.791 C2.493,8.781 2.394,8.766 2.297,8.748 C2.196,8.728 2.093,8.764 2.025,8.842 C1.957,8.920 1.935,9.029 1.966,9.128 C2.389,10.473 3.479,11.462 4.797,11.764 C3.704,12.460 2.454,12.825 1.143,12.825 C0.869,12.825 0.594,12.809 0.324,12.777 C0.190,12.761 0.062,12.841 0.017,12.971 C-0.029,13.100 0.019,13.244 0.133,13.319 C1.819,14.418 3.767,15.000 5.768,15.000 C9.702,15.000 12.163,13.112 13.535,11.528 C15.246,9.552 16.227,6.938 16.227,4.355 C16.227,4.247 16.225,4.138 16.222,4.029 C16.897,3.512 17.478,2.886 17.951,2.166 C18.022,2.056 18.015,1.912 17.931,1.811 C17.848,1.711 17.710,1.678 17.592,1.731 Z"/>
</g>
</svg>