<svg 
 xmlns="http://www.w3.org/2000/svg"
 xmlns:xlink="http://www.w3.org/1999/xlink"
 width="23px" height="12px">
<defs>
<filter id="Filter_0">
    <feFlood flood-color="rgb(69, 169, 25)" flood-opacity="1" result="floodOut" />
    <feComposite operator="atop" in="floodOut" in2="SourceGraphic" result="compOut" />
    <feBlend mode="normal" in="compOut" in2="SourceGraphic" />
</filter>

</defs>
<g filter="url(#Filter_0)">
<path fill-rule="evenodd"  fill="rgb(0, 0, 0)"
 d="M18.935,7.630 C19.664,8.317 20.434,8.963 21.089,9.719 C21.378,10.055 21.652,10.402 21.861,10.792 C22.158,11.346 21.889,11.956 21.374,11.989 L18.169,11.988 C17.342,12.054 16.683,11.733 16.128,11.188 C15.684,10.753 15.273,10.289 14.847,9.839 C14.672,9.654 14.489,9.481 14.270,9.344 C13.832,9.071 13.453,9.154 13.203,9.594 C12.948,10.041 12.890,10.537 12.865,11.036 C12.831,11.763 12.603,11.955 11.845,11.988 C10.224,12.061 8.687,11.825 7.258,11.037 C5.999,10.343 5.022,9.362 4.172,8.252 C2.518,6.091 1.250,3.716 0.111,1.275 C-0.145,0.725 0.042,0.429 0.672,0.419 C1.717,0.399 2.763,0.401 3.810,0.417 C4.235,0.423 4.516,0.658 4.680,1.045 C5.246,2.386 5.938,3.662 6.807,4.844 C7.038,5.159 7.274,5.474 7.610,5.695 C7.982,5.941 8.265,5.859 8.440,5.460 C8.551,5.207 8.599,4.935 8.624,4.663 C8.707,3.731 8.718,2.800 8.573,1.871 C8.483,1.291 8.145,0.916 7.544,0.806 C7.238,0.750 7.284,0.640 7.432,0.471 C7.690,0.181 7.932,-0.000 8.415,-0.000 L12.037,-0.000 C12.607,0.108 12.734,0.356 12.812,0.908 L12.815,4.787 C12.809,5.001 12.926,5.636 13.326,5.778 C13.646,5.879 13.857,5.632 14.050,5.436 C14.917,4.549 15.536,3.500 16.089,2.414 C16.334,1.937 16.545,1.441 16.750,0.946 C16.901,0.578 17.139,0.398 17.569,0.406 L21.055,0.409 C21.158,0.409 21.263,0.410 21.363,0.427 C21.950,0.523 22.111,0.766 21.930,1.320 C21.644,2.187 21.088,2.910 20.544,3.636 C19.962,4.412 19.341,5.160 18.764,5.941 C18.234,6.653 18.276,7.012 18.935,7.630 L18.935,7.630 Z"/>
</g>
</svg>