<svg 
 xmlns="http://www.w3.org/2000/svg"
 xmlns:xlink="http://www.w3.org/1999/xlink"
 width="22px" height="15px">
<defs>
<filter id="Filter_0">
    <feFlood flood-color="rgb(69, 169, 25)" flood-opacity="1" result="floodOut" />
    <feComposite operator="atop" in="floodOut" in2="SourceGraphic" result="compOut" />
    <feBlend mode="normal" in="compOut" in2="SourceGraphic" />
</filter>

</defs>
<g filter="url(#Filter_0)">
<path fill-rule="evenodd"  fill="rgb(0, 0, 0)"
 d="M21.142,1.287 C20.348,0.373 18.882,0.000 16.082,0.000 L5.918,0.000 C3.053,0.000 1.562,0.397 0.771,1.371 C-0.000,2.320 -0.000,3.719 -0.000,5.655 L-0.000,9.345 C-0.000,13.096 0.915,15.000 5.918,15.000 L16.082,15.000 C18.510,15.000 19.856,14.671 20.726,13.864 C21.619,13.036 22.000,11.685 22.000,9.345 L22.000,5.655 C22.000,3.613 21.940,2.206 21.142,1.287 ZM14.124,8.009 L9.508,10.347 C9.405,10.399 9.292,10.425 9.180,10.425 C9.052,10.425 8.925,10.392 8.812,10.325 C8.600,10.201 8.470,9.978 8.470,9.737 L8.470,5.078 C8.470,4.838 8.599,4.615 8.811,4.491 C9.023,4.366 9.287,4.357 9.507,4.468 L14.122,6.790 C14.357,6.908 14.505,7.143 14.505,7.399 C14.505,7.655 14.358,7.891 14.124,8.009 Z"/>
</g>
</svg>